<?xml version="1.0" encoding="UTF-8" standalone="no"?>
<svg
   xmlns:dc="http://purl.org/dc/elements/1.1/"
   xmlns:cc="http://creativecommons.org/ns#"
   xmlns:rdf="http://www.w3.org/1999/02/22-rdf-syntax-ns#"
   xmlns:svg="http://www.w3.org/2000/svg"
   xmlns="http://www.w3.org/2000/svg"
   xmlns:xlink="http://www.w3.org/1999/xlink"
   height="1407"
   width="3792"
   version="1.1"
   id="svg2">
  <metadata
     id="metadata4">
    <rdf:RDF>
      <cc:Work
         rdf:about="">
        <dc:format>image/svg+xml</dc:format>
        <dc:type
           rdf:resource="http://purl.org/dc/dcmitype/StillImage" />
        <dc:title></dc:title>
      </cc:Work>
    </rdf:RDF>
  </metadata>
  <defs
     id="defs6" />
  <use
     height="100%"
     width="100%"
     transform="translate(-74.386,0)"
     xlink:href="#g10"
     y="0"
     x="0"
     id="use8" />
  <g
     id="g10">
    <path
       d="m 1250.1102,1163.4139 -172.05,0 80.52,-378.853 c 4.23,-20.337 6.35,-35.59 6.35,-45.766 0,-19.493 -9.74,-31.36 -29.24,-35.598 -7.62,-2.539 -25,-3.809 -52.12,-3.809 l -138.36501,0 -93.276,-0.012 -18.383,84.563 -80.515,379.475 -174.171,0 129.671,-610.226 174.171,0 c 34.097,-0.476 9.129,0 114.417,0 l 181.80101,0 c 65.26,0 110.6,6.567 136.03,19.703 25.42,13.141 38.14,38.352 38.14,75.645 0,20.336 -3.39,46.192 -10.17,77.548 l -92.81,437.33 z"
       style="fill:none;stroke:#231f20;stroke-width:83.97389984"
       id="path12" />
    <path
       d="m 1966.4802,1162.1449 -174.17,0 c -45.12,-0.699 -9.9,0 -114.41,0 l -181.81,0 c -65.25,0 -110.59,-6.356 -136.02,-19.071 -25.43,-12.711 -38.14,-38.137 -38.14,-76.277 0,-19.497 3.39,-45.348 10.17,-77.548 l 92.8,-437.33 172.06,0 -80.52,378.846 c -4.24,21.191 -6.36,36.871 -6.36,47.039 0,18.648 9.7,30.719 29.24,35.598 7.57,1.894 25.01,2.543 52.12,2.543 l 138.37,0 93.66,0.179 18,-85.359 80.51,-378.846 174.18,0 -129.68,610.226 z"
       style="fill:none;stroke:#231f20;stroke-width:83.97389984"
       id="path14" />
    <path
       d="m 2459.9302,1364.2631 -287.35,0 c -65.12,0 -110.6,-6.5704 -136.03,-19.7032 -25.43,-13.1408 -38.14,-38.356 -38.14,-75.649 0,-20.336 3.57,-46.149 10.17,-77.543 l 177.29,-842.66 174.15,0.32 -42.97,202.812 166.68,-0.058 -31.58,147.325 -165.36,0 -92.59,433.776 c -4.28,20.328 -6.35,35.602 -6.35,45.77 0,19.484 9.93,30.844 29.23,35.598 7.72,1.894 25,3.808 52.13,3.808 l 222.5,0 -31.78,146.2042 z"
       style="fill:none;stroke:#231f20;stroke-width:83.97389984"
       id="path16" />
    <path
       d="m 2945.3702,1163.4139 -362.33,0 c -65.26,0 -110.61,-6.566 -136.03,-19.703 -25.42,-13.141 -38.14,-38.352 -38.14,-75.645 0,-20.344 3.39,-46.188 10.17,-77.547 l 55.94,-264.435 c 15.26,-71.192 38.35,-117.806 69.29,-139.845 30.93,-22.031 87.08,-33.051 168.44,-33.051 l 362.33,0 -31.78,146.2 -296.64,0 c -39.84,0 -65.26,3.809 -76.28,11.438 -15.26,10.176 -26.7,34.75 -34.54,73.528 l -31.15,147.68 c -4.24,20.34 -6.36,35.602 -6.36,45.77 0,19.492 9.75,31.356 29.25,35.598 7.62,2.543 25,3.816 52.12,3.816 l 296.22,0 -30.51,146.196 z"
       style="fill:none;stroke:#231f20;stroke-width:83.97389984"
       id="path18" />
    <path
       d="m 3646.4802,1163.4139 -172.06,0 80.52,-378.853 c 4.24,-20.337 6.36,-35.59 6.36,-45.766 0,-19.493 -9.89,-30.762 -29.24,-35.598 -7.8,-1.942 -24.8,-3.809 -51.91,-3.809 l -138.16,0 -93.19,0.016 -18.47,85.367 -80.93,378.643 -174.18,0 174.18,-814.906 172.89,0 -43.68,204.668 c 36.97,-0.074 9.28,0.012 114.66,0.012 l 182.01,0 c 65.26,0 110.6,6.567 136.03,19.703 25.43,13.141 38.14,38.352 38.14,75.645 0,20.336 -3.39,46.192 -10.17,77.548 l -92.8,437.33 z"
       style="fill:none;stroke:#231f20;stroke-width:83.97389984"
       id="path20" />
  </g>
  <path
     style="fill:#231f20;fill-rule:evenodd"
     d="m 663.85519,763.0209 -23.148,110.692 -341.316,362.039 156.16,-496.883 L 0.633,520.0949 l 504.22619,-5.632 64.996,-514.305 169.469,514.305 -32.476,36.222 -22.727,56.223 -20.266,156.113"
     id="path22" />
  <path
     style="fill:#f89c0e;fill-rule:evenodd"
     d="m 1250.1202,1163.4159 -172.05,0 80.52,-378.852 c 4.23,-20.336 6.35,-35.59 6.35,-45.765 0,-19.493 -9.74,-31.36 -29.24,-35.598 -7.63,-2.539 -25,-3.809 -52.12,-3.809 l -138.36901,0 -93.277,-0.011 -18.383,84.562 -80.516,379.473 -174.172,0 129.672,-610.223 174.172,0 c 34.098,-0.476 9.129,0 114.418,0 l 181.80501,0 c 65.26,0 110.59,6.567 136.02,19.703 25.43,13.141 38.15,38.352 38.15,75.645 0,20.336 -3.39,46.191 -10.17,77.547 l -92.81,437.328"
     id="path24" />
  <path
     style="fill:#f89c0e;fill-rule:evenodd"
     d="m 1966.5002,1162.1459 -174.18,0 c -45.12,-0.699 -9.9,0 -114.41,0 l -181.81,0 c -65.25,0 -110.6,-6.355 -136.03,-19.07 -25.43,-12.711 -38.13,-38.137 -38.13,-76.277 0,-19.496 3.39,-45.348 10.17,-77.547 l 92.8,-437.328 172.05,0 -80.51,378.843 c -4.24,21.192 -6.36,36.871 -6.36,47.039 0,18.649 9.7,30.719 29.24,35.598 7.57,1.895 25.01,2.543 52.12,2.543 l 138.37,0 93.66,0.18 18,-85.36 80.52,-378.843 174.17,0 -129.67,610.222"
     id="path26" />
  <path
     style="fill:#f89c0e;fill-rule:evenodd"
     d="m 2459.9502,1364.2634 -287.35,0 c -65.13,0 -110.61,-6.5703 -136.03,-19.7032 -25.43,-13.1406 -38.14,-38.3553 -38.14,-75.6483 0,-20.336 3.56,-46.149 10.16,-77.543 l 177.29,-842.661 174.16,0.33 -42.97,202.807 166.68,-0.058 -31.59,147.324 -165.36,0 -92.59,433.774 c -4.27,20.328 -6.35,35.601 -6.35,45.769 0,19.484 9.93,30.844 29.23,35.598 7.72,1.894 25.01,3.808 52.13,3.808 l 222.51,0 -31.78,146.2035"
     id="path28" />
  <path
     style="fill:#f89c0e;fill-rule:evenodd"
     d="m 2945.3802,1163.4159 -362.32,0 c -65.26,0 -110.61,-6.567 -136.04,-19.703 -25.42,-13.141 -38.14,-38.352 -38.14,-75.645 0,-20.344 3.39,-46.187 10.17,-77.547 l 55.94,-264.433 c 15.26,-71.192 38.36,-117.805 69.29,-139.844 30.93,-22.031 87.09,-33.051 168.45,-33.051 l 362.33,0 -31.79,146.199 -296.64,0 c -39.83,0 -65.26,3.809 -76.28,11.438 -15.25,10.176 -26.69,34.75 -34.54,73.527 l -31.14,147.68 c -4.24,20.34 -6.36,35.601 -6.36,45.769 0,19.493 9.74,31.356 29.24,35.598 7.63,2.543 25,3.816 52.13,3.816 l 296.21,0 -30.51,146.196"
     id="path30" />
  <path
     style="fill:#f89c0e;fill-rule:evenodd"
     d="m 3646.5002,1163.4159 -172.06,0 80.52,-378.852 c 4.24,-20.336 6.36,-35.59 6.36,-45.765 0,-19.493 -9.89,-30.762 -29.24,-35.598 -7.79,-1.941 -24.8,-3.809 -51.91,-3.809 l -138.16,0 -93.19,0.016 -18.47,85.367 -80.94,378.641 -174.17,0 174.17,-814.898 172.9,0 -43.68,204.663 c 36.97,-0.074 9.28,0.012 114.66,0.012 l 182.01,0 c 65.27,0 110.61,6.567 136.03,19.703 25.43,13.141 38.14,38.352 38.14,75.645 0,20.336 -3.39,46.191 -10.17,77.547 l -92.8,437.328"
     id="path32" />
  <path
     style="fill:#ffffff;fill-rule:evenodd"
     d="m 587.12519,180.1079 119.832,371.089 227.434,19.34 -243.211,82.769 -5.821,171.567 -36.382,-26.297 -257.27,278.676 116.352,-360.989 -344.559,-158.57 379.297,-0.894 44.328,-376.691"
     id="path34" />
</svg>
